<svg width="171" height="158" viewBox="0 0 171 158" fill="none" xmlns="http://www.w3.org/2000/svg">
<path d="M22.4999 66.0813C21.3071 66.0886 20.1654 66.5658 19.3221 67.4091C18.4786 68.2523 18.0016 69.3943 17.9944 70.5869V78.9305C17.9054 80.0608 17.3934 81.1159 16.5609 81.8855C15.7282 82.6551 14.6363 83.0823 13.5027 83.0823C12.3688 83.0823 11.2769 82.6551 10.4445 81.8855C9.61183 81.1159 9.10009 80.0608 9.0111 78.9305V79.4867C9.0111 78.2919 8.53634 77.1458 7.69141 76.3009C6.84648 75.4559 5.70035 74.9812 4.50554 74.9812C3.31046 74.9812 2.1646 75.4559 1.31968 76.3009C0.474748 77.1458 0 78.2919 0 79.4867V153.494C0 154.69 0.474748 155.835 1.31968 156.68C2.1646 157.526 3.31046 158 4.50554 158C5.70035 158 6.84648 157.526 7.69141 156.68C8.53634 155.835 9.0111 154.69 9.0111 153.494V130.021C8.96215 129.402 9.04224 128.779 9.24583 128.191C9.44941 127.604 9.7723 127.066 10.1939 126.609C10.6158 126.153 11.1276 125.789 11.6969 125.54C12.2665 125.291 12.8811 125.162 13.5027 125.162C14.124 125.162 14.739 125.291 15.3083 125.54C15.8776 125.789 16.3893 126.153 16.8112 126.609C17.2332 127.066 17.5561 127.604 17.7596 128.191C17.9632 128.779 18.043 129.402 17.9944 130.021V144.483C17.9944 145.678 18.4688 146.824 19.314 147.669C20.159 148.514 21.3048 148.989 22.4999 148.989C23.6947 148.989 24.8409 148.514 25.6858 147.669C26.5307 146.824 27.0055 145.678 27.0055 144.483V70.5313C26.9907 69.3459 26.5098 68.2142 25.6663 67.3813C24.8231 66.5483 23.6853 66.0813 22.4999 66.0813ZM13.5166 119.23C12.924 119.234 12.3363 119.12 11.7881 118.895C11.2397 118.67 10.7415 118.338 10.3224 117.919C9.90329 117.5 9.5715 117.001 9.3465 116.453C9.1215 115.905 9.00748 115.317 9.0111 114.725V94.4218C8.96215 93.8021 9.04224 93.1791 9.24583 92.592C9.44941 92.0049 9.7723 91.4662 10.1939 91.0098C10.6158 90.5534 11.1276 90.1893 11.6969 89.9401C12.2665 89.6912 12.8811 89.5624 13.5027 89.5624C14.124 89.5624 14.739 89.6912 15.3083 89.9401C15.8776 90.1893 16.3893 90.5534 16.8112 91.0098C17.2332 91.4662 17.5561 92.0049 17.7596 92.592C17.9632 93.1791 18.043 93.8021 17.9944 94.4218V114.725C17.998 115.315 17.8851 115.9 17.6615 116.447C17.4381 116.993 17.1088 117.49 16.6928 117.909C16.2764 118.328 15.7816 118.66 15.2368 118.887C14.6917 119.114 14.1071 119.23 13.5166 119.23Z" fill="#08D9D6"/>
<path d="M58.4886 28.8135C57.9007 28.8135 57.3186 28.9295 56.7751 29.1545C56.232 29.3795 55.7383 29.7093 55.3225 30.1251C54.9067 30.5409 54.5769 31.0346 54.3519 31.5778C54.1269 32.1209 54.0109 32.7033 54.0109 33.2913V92.3362C54.0109 93.5312 53.5364 94.6771 52.6915 95.522C51.8463 96.3672 50.7004 96.8417 49.5054 96.8417C48.3106 96.8417 47.1644 96.3672 46.3195 95.522C45.4746 94.6771 45.0001 93.5312 45.0001 92.3362V47.0863C45.0488 46.4666 44.9687 45.8437 44.7651 45.2565C44.5615 44.6692 44.2389 44.1304 43.817 43.674C43.3951 43.2176 42.8833 42.8536 42.314 42.6044C41.7447 42.3555 41.1298 42.227 40.5085 42.227C39.8869 42.227 39.2722 42.3555 38.7026 42.6044C38.1333 42.8536 37.6216 43.2176 37.1997 43.674C36.7778 44.1304 36.4549 44.6692 36.2513 45.2565C36.0477 45.8437 35.9679 46.4666 36.0168 47.0863V121.094C35.9679 121.713 36.0477 122.336 36.2513 122.924C36.4549 123.511 36.7778 124.049 37.1997 124.506C37.6216 124.962 38.1333 125.326 38.7026 125.576C39.2722 125.825 39.8869 125.953 40.5085 125.953C41.1298 125.953 41.7447 125.825 42.314 125.576C42.8833 125.326 43.3951 124.962 43.817 124.506C44.2389 124.049 44.5615 123.511 44.7651 122.924C44.9687 122.336 45.0488 121.713 45.0001 121.094V107.605C45.0001 106.41 45.4746 105.264 46.3195 104.419C47.1644 103.574 48.3106 103.099 49.5054 103.099C50.7004 103.099 51.8463 103.574 52.6915 104.419C53.5364 105.264 54.0109 106.41 54.0109 107.605V107.188C54.0999 108.318 54.6119 109.373 55.4443 110.143C56.277 110.912 57.3689 111.34 58.5025 111.34C59.6364 111.34 60.7286 110.912 61.561 110.143C62.3934 109.373 62.9052 108.318 62.9942 107.188V33.1522C62.958 31.9841 62.4666 30.8766 61.6247 30.0659C60.7829 29.2552 59.6573 28.8057 58.4886 28.8135Z" fill="#08D9D6"/>
<path d="M94.4774 0C93.2823 0 92.1364 0.474748 91.2915 1.31968C90.4466 2.1646 89.9718 3.31046 89.9718 4.50554V16.9653C89.9718 18.1601 89.4971 19.3063 88.6522 20.1512C87.8072 20.9961 86.6611 21.4709 85.4663 21.4709C84.2712 21.4709 83.1253 20.9961 82.2804 20.1512C81.4355 19.3063 80.9607 18.1601 80.9607 16.9653V14.6291C80.8717 13.4988 80.3597 12.4436 79.5273 11.6741C78.6949 10.9045 77.6027 10.4773 76.4691 10.4773C75.3355 10.4773 74.2433 10.9045 73.4109 11.6741C72.5782 12.4436 72.0665 13.4988 71.9775 14.6291V88.6369C71.9288 89.2565 72.0086 89.8792 72.2122 90.4666C72.4158 91.0537 72.7387 91.5925 73.1606 92.0488C73.5822 92.5052 74.094 92.8693 74.6635 93.1185C75.2329 93.3674 75.8475 93.4962 76.4691 93.4962C77.0907 93.4962 77.7053 93.3674 78.2747 93.1185C78.8442 92.8693 79.356 92.5052 79.7776 92.0488C80.1995 91.5925 80.5224 91.0537 80.726 90.4666C80.9296 89.8792 81.0094 89.2565 80.9607 88.6369V32.3454C80.9607 31.1503 81.4355 30.0044 82.2804 29.1595C83.1253 28.3146 84.2712 27.8398 85.4663 27.8398C86.6611 27.8398 87.8072 28.3146 88.6522 29.1595C89.4971 30.0044 89.9718 31.1503 89.9718 32.3454V78.5133C89.9718 79.7081 90.4466 80.8542 91.2915 81.6992C92.1364 82.5441 93.2823 83.0188 94.4774 83.0188C95.6722 83.0188 96.8183 82.5441 97.6632 81.6992C98.5082 80.8542 98.9829 79.7081 98.9829 78.5133V4.50554C98.9754 3.31296 98.4987 2.17101 97.6552 1.32775C96.8119 0.484212 95.67 0.00723112 94.4774 0Z" fill="#08D9D6"/>
<path d="M166.455 74.3974C165.265 74.4049 164.126 74.8827 163.287 75.7268C162.448 76.5709 161.977 77.7129 161.977 78.9029V85.3275C161.977 86.5226 161.503 87.6684 160.658 88.5134C159.813 89.3583 158.667 89.8331 157.472 89.8331C156.277 89.8331 155.131 89.3583 154.286 88.5134C153.441 87.6684 152.966 86.5226 152.966 85.3275V67.2219C152.966 66.0271 152.492 64.881 151.647 64.036C150.802 63.1911 149.656 62.7164 148.461 62.7164C147.266 62.7164 146.12 63.1911 145.275 64.036C144.43 64.881 143.955 66.0271 143.955 67.2219V105.908C143.866 107.039 143.354 108.094 142.522 108.863C141.689 109.633 140.597 110.06 139.463 110.06C138.33 110.06 137.238 109.633 136.405 108.863C135.573 108.094 135.061 107.039 134.972 105.908V46.7244C134.972 45.5296 134.497 44.3835 133.652 43.5386C132.807 42.6937 131.661 42.2189 130.466 42.2189C129.271 42.2189 128.125 42.6937 127.28 43.5386C126.435 44.3835 125.961 45.5296 125.961 46.7244V88.0253C126.01 88.6449 125.929 89.2679 125.726 89.855C125.522 90.4421 125.2 90.9809 124.778 91.4373C124.356 91.8937 123.844 92.258 123.275 92.5069C122.705 92.7561 122.091 92.8846 121.469 92.8846C120.848 92.8846 120.233 92.7561 119.663 92.5069C119.094 92.258 118.582 91.8937 118.16 91.4373C117.739 90.9809 117.416 90.4421 117.212 89.855C117.009 89.2679 116.929 88.6449 116.978 88.0253V29.1473C116.978 27.9525 116.503 26.8063 115.658 25.9614C114.813 25.1165 113.667 24.6417 112.472 24.6417C111.277 24.6417 110.131 25.1165 109.286 25.9614C108.441 26.8063 107.966 27.9525 107.966 29.1473V103.155C107.966 104.35 108.441 105.496 109.286 106.341C110.131 107.186 111.277 107.661 112.472 107.661C113.667 107.661 114.813 107.186 115.658 106.341C116.503 105.496 116.978 104.35 116.978 103.155V103.405C117.067 102.275 117.578 101.22 118.411 100.45C119.243 99.681 120.335 99.2535 121.469 99.2535C122.603 99.2535 123.695 99.681 124.527 100.45C125.36 101.22 125.872 102.275 125.961 103.405V120.732C125.961 121.927 126.435 123.073 127.28 123.918C128.125 124.763 129.271 125.238 130.466 125.238C131.661 125.238 132.807 124.763 133.652 123.918C134.497 123.073 134.972 121.927 134.972 120.732V121.288C134.923 120.669 135.003 120.046 135.206 119.459C135.41 118.872 135.733 118.333 136.155 117.876C136.577 117.42 137.088 117.056 137.658 116.807C138.227 116.558 138.842 116.429 139.463 116.429C140.085 116.429 140.7 116.558 141.269 116.807C141.838 117.056 142.35 117.42 142.772 117.876C143.194 118.333 143.517 118.872 143.72 119.459C143.924 120.046 144.004 120.669 143.955 121.288V141.23C143.955 142.425 144.43 143.571 145.275 144.416C146.12 145.26 147.266 145.735 148.461 145.735C149.656 145.735 150.802 145.26 151.647 144.416C152.492 143.571 152.966 142.425 152.966 141.23V100.735C152.966 99.5403 153.441 98.3944 154.286 97.5495C155.131 96.7046 156.277 96.2298 157.472 96.2298C158.667 96.2298 159.813 96.7046 160.658 97.5495C161.503 98.3944 161.977 99.5403 161.977 100.735V152.911C161.928 153.53 162.009 154.153 162.212 154.74C162.416 155.328 162.738 155.866 163.16 156.323C163.582 156.779 164.094 157.143 164.663 157.392C165.233 157.641 165.847 157.77 166.469 157.77C167.09 157.77 167.705 157.641 168.275 157.392C168.844 157.143 169.356 156.779 169.778 156.323C170.199 155.866 170.522 155.328 170.726 154.74C170.93 154.153 171.009 153.53 170.96 152.911V78.8751C170.953 77.6851 170.475 76.5462 169.631 75.7071C168.787 74.8683 167.645 74.3974 166.455 74.3974Z" fill="#08D9D6"/>
</svg>
